<svg width="254" height="72" viewBox="0 0 254 72" fill="none" xmlns="http://www.w3.org/2000/svg">
<path d="M41.9335 17.1319H26.0168C25.947 16.2475 25.5775 15.5219 24.9124 14.9549C24.2432 14.388 23.262 14.1062 21.9606 14.1062C20.6345 14.1062 19.6287 14.4107 18.9472 15.0165C18.2616 15.6255 17.9208 16.3836 17.9208 17.2939V17.7507C17.9208 18.6674 18.2616 19.4287 18.9472 20.0378C19.6287 20.6436 20.6345 20.9481 21.9606 20.9481C23.262 20.9481 24.2432 20.6662 24.9124 20.0993C25.5775 19.5324 25.947 18.8197 26.0168 17.9612H41.9335C41.9335 20.0086 41.5271 21.9491 40.7142 23.7924C39.9136 25.6292 38.7066 27.2393 37.0973 28.6226C35.4921 29.9994 33.4681 31.0879 31.0295 31.8913C28.595 32.6947 25.7622 33.0964 22.5395 33.0964H21.3858C18.1672 33.0964 15.3426 32.6947 12.904 31.8913C10.4654 31.0879 8.44142 29.9994 6.82388 28.6226C5.21455 27.2393 4.01166 25.6292 3.207 23.7924C2.40233 21.9491 2 20.0086 2 17.9612V17.1319C2 15.0878 2.40233 13.1473 3.207 11.3104C4.01166 9.47039 5.21455 7.86033 6.82388 6.48353C8.44142 5.10024 10.4654 4.00528 12.904 3.20511C15.3426 2.4017 18.1672 2 21.3858 2H22.5395C24.7892 2 26.8132 2.23649 28.6196 2.70622C30.4219 3.17271 32.023 3.82062 33.4147 4.64995L35.5701 2.41466H41.9335V17.1319ZM62.3662 33.0964C59.1517 33.0964 56.323 32.6947 53.8885 31.8913C51.4499 31.0879 49.4218 29.9994 47.8043 28.6226C46.199 27.2393 44.992 25.6292 44.1874 23.7924C43.3827 21.9491 42.9845 20.0086 42.9845 17.9612V17.1319C42.9845 15.0878 43.3827 13.1473 44.1874 11.3104C44.992 9.47039 46.199 7.86033 47.8043 6.48353C49.4218 5.10024 51.4499 4.00528 53.8885 3.20511C56.323 2.4017 59.1517 2 62.3662 2H63.5198C66.7467 2 69.5753 2.4017 72.014 3.20511C74.4485 4.00528 76.4724 5.10024 78.0818 6.48353C79.687 7.86033 80.894 9.47039 81.6987 11.3104C82.5115 13.1473 82.918 15.0878 82.918 17.1319V17.9612C82.918 20.0086 82.5115 21.9491 81.6987 23.7924C80.894 25.6292 79.687 27.2393 78.0818 28.6226C76.4724 29.9994 74.4485 31.0879 72.014 31.8913C69.5753 32.6947 66.7467 33.0964 63.5198 33.0964H62.3662ZM58.9012 17.7507C58.9012 18.6674 59.2461 19.4287 59.9276 20.0378C60.6132 20.6436 61.619 20.9481 62.9451 20.9481C64.3122 20.9481 65.3303 20.6436 65.9954 20.0378C66.6646 19.4287 66.9971 18.6674 66.9971 17.7507V17.2939C66.9971 16.3836 66.6646 15.6255 65.9954 15.0165C65.3303 14.4107 64.3122 14.1062 62.9451 14.1062C61.619 14.1062 60.6132 14.4107 59.9276 15.0165C59.2461 15.6255 58.9012 16.3836 58.9012 17.2939V17.7507ZM83.9649 2.41466H103.925V10.9185H101.988V17.012L107.132 10.9185H104.976V2.41466H125.323V11.1193H121.423L115.753 17.4267L121.271 23.5203H125.323V32.6817H108.815L101.988 24.7254V32.6817H83.9649V23.5203H87.0193V11.1193H83.9649V2.41466ZM126.366 2.41466H150.009C154.919 2.41466 158.684 3.24398 161.311 4.90587C163.934 6.55804 165.248 8.91966 165.248 11.9907C165.248 13.6786 164.949 15.0942 164.349 16.241C163.758 17.3878 162.966 18.3305 161.964 19.0659C160.962 19.7948 159.837 20.3617 158.589 20.7667C157.349 21.1651 156.081 21.4535 154.779 21.6381C153.49 21.813 152.23 21.9135 151.011 21.9394C149.787 21.9685 148.699 21.9815 147.751 21.9815H144.389V23.5203H151.639V32.6817H126.366V23.5203H129.42V11.1193H126.366V2.41466ZM147.069 15.3502C147.874 15.3502 148.539 15.1655 149.061 14.793C149.59 14.4172 149.853 13.9248 149.853 13.3157C149.853 12.5123 149.574 11.9454 149.007 11.615C148.453 11.2845 147.804 11.1193 147.069 11.1193H144.389V15.3502H147.069ZM208.963 32.6817H188.156V23.7211H190.685L190.258 21.9815H184.95L184.527 23.7211H187.106V32.6817H166.299V23.5203H169.506L172.761 11.1193H169.863V2.41466H205.334V11.1193H202.447L205.707 23.5203H208.963V32.6817ZM188.887 16.4224L187.631 11.1614L186.321 16.4224H188.887ZM210.01 2.41466H252V16.5553H241.429L240.324 11.1193H238.489V23.5203H247.841V32.6817H214.168V23.5203H223.521V11.1193H221.673L220.569 16.5553H210.01V2.41466Z" stroke="black" stroke-width="3.0315"/>
<path d="M49.3316 68.0204H45.645V60.3816H49.3316C50.3744 60.3816 51.1914 61.0295 51.1914 61.8491V66.5497C51.1914 67.3725 50.3744 68.0204 49.3316 68.0204ZM43.1201 70.0095H49.3316C51.762 70.0095 53.7162 68.4675 53.7162 66.5497V61.8491C53.7162 59.7596 51.9796 58.3892 49.3316 58.3892H45.645V52.4188H52.7679V50.4297H43.1201V70.0095Z" fill="black"/>
<path d="M70.1413 70.0095L67.6205 50.4297H60.4935L57.9728 70.0095H60.4935L61.409 62.8695H66.6722L67.6205 70.0095H70.1413ZM61.6595 60.8772L62.7638 52.4188H65.3502L66.4218 60.8772H61.6595Z" fill="black"/>
<path d="M78.7821 70.1359H80.609C83.0394 70.1359 84.9936 68.4708 84.9936 66.5529V61.8524C84.9936 61.0328 84.2053 59.8633 83.4458 59.3903C84.1109 58.9173 84.8335 57.696 84.8335 56.925V53.7665C84.8335 51.8519 82.8793 50.3066 80.453 50.3066H78.9381C76.5118 50.3066 74.5576 51.8519 74.5576 53.7665V56.1313H77.0783V53.7665C77.0783 52.9469 77.8994 52.299 78.9381 52.299H80.453C81.4916 52.299 82.3127 52.9469 82.3127 53.7665V56.925C82.3127 57.722 81.5573 58.3439 80.609 58.3925H78.1827V60.3849H80.609C81.6518 60.3849 82.4687 61.0328 82.4687 61.8524V66.5529C82.4687 67.3758 81.6518 68.1468 80.609 68.1468H78.7821C77.7393 68.1468 76.9223 67.4989 76.9223 66.6793V63.0964H74.3975V66.6793C74.3975 68.5939 76.3516 70.1359 78.7821 70.1359Z" fill="black"/>
<path d="M101.419 70.0095L98.8981 50.4297H91.7711L89.2504 70.0095H91.7711L92.6866 62.8695H97.9498L98.8981 70.0095H101.419ZM92.937 60.8772L94.0414 52.4188H96.6278L97.6993 60.8772H92.937Z" fill="black"/>
<path d="M122.734 50.3066H119.991C117.594 50.3066 115.607 51.8519 115.607 53.7665V66.6793C115.607 68.5939 117.594 70.1359 119.991 70.1359H122.734C125.16 70.1359 127.114 68.5939 127.114 66.6793V53.7665C127.114 51.8519 125.16 50.3066 122.734 50.3066ZM118.132 66.6793V53.7665C118.132 52.9469 118.981 52.299 119.991 52.299H122.734C123.772 52.299 124.593 52.9469 124.593 53.7665V66.6793C124.593 67.4989 123.772 68.1468 122.734 68.1468H119.991C118.981 68.1468 118.132 67.4989 118.132 66.6793Z" fill="black"/>
<path d="M138.086 70.0095V52.4188H142.282V50.4297H131.374V52.4188H135.566V70.0095H138.086Z" fill="black"/>
<path d="M159.338 68.0204H158.455L156.185 50.4297H149.062L146.792 68.0204H145.909V71.9986H148.43V70.0095H156.817V71.9986H159.338V68.0204ZM149.313 68.0204L151.333 52.4188H153.915L155.935 68.0204H149.313Z" fill="black"/>
<path d="M169.806 68.0204H166.119V59.8827H169.806C170.849 59.8827 171.666 60.5306 171.666 61.3502V66.5497C171.666 67.3725 170.849 68.0204 169.806 68.0204ZM163.595 70.0095H169.806C172.237 70.0095 174.191 68.4675 174.191 66.5497V61.3502C174.191 59.2607 172.454 57.8936 169.806 57.8936H166.119V50.4297H163.595V70.0095ZM176.112 70.0095H178.637V50.4297H176.112V70.0095Z" fill="black"/>
<path d="M185.73 70.0095L188.124 60.3816H190.427L192.853 70.0095H195.378L192.73 59.4356L195.124 50.4297H192.603L190.46 58.3892H188.095L185.981 50.4297H183.46L185.858 59.4356L183.206 70.0095H185.73Z" fill="black"/>
<path d="M211.489 70.0095L208.968 50.4297H201.841L199.32 70.0095H201.841L202.757 62.8695H208.02L208.968 70.0095H211.489ZM203.007 60.8772L204.111 52.4188H206.698L207.769 60.8772H203.007Z" fill="black"/>
</svg>
